<svg id="Layer_1" enable-background="new 0 0 128 128" height="512" viewBox="0 0 128 128" width="512" xmlns="http://www.w3.org/2000/svg"><g><g fill="#e6e7e8"><circle cx="66" cy="107.411" r="18.5"/><path d="m103.833 41.411h-75.666c-3.125 0-5.667 2.542-5.667 5.667s2.542 5.667 5.667 5.667h4.84l19.493 25.339v7.66c0 .552.447 1 1 1h25c.553 0 1-.448 1-1v-7.66l19.493-25.34h4.84c3.125 0 5.667-2.542 5.667-5.667 0-3.124-2.542-5.666-5.667-5.666z"/><path d="m74.402 30.833h5.47v4.062c0 .375.209.718.542.889.145.074.302.111.458.111.205 0 .408-.063.581-.187l6.825-4.876h12.589c2.948 0 5.348-2.399 5.348-5.348v-14.047c0-2.949-2.399-5.348-5.348-5.348h-26.465c-2.948 0-5.348 2.399-5.348 5.348v14.048c.001 2.949 2.4 5.348 5.348 5.348z"/><path d="m31.133 34.515h12.589l6.825 4.875c.173.124.376.187.581.187.156 0 .313-.037.458-.111.333-.171.542-.515.542-.889v-4.062h5.47c2.948 0 5.348-2.399 5.348-5.348v-14.047c0-2.949-2.399-5.348-5.348-5.348h-26.465c-2.948 0-5.348 2.399-5.348 5.348v14.048c0 2.948 2.4 5.347 5.348 5.347z"/></g><g><g><circle cx="62" cy="103.411" fill="#ffd7e5" r="17.5"/><circle cx="62" cy="103.411" fill="#fa759e" r="14"/><g><path d="m67.149 110.434c-.901.893-2.114 1.453-3.639 1.68v1.534c0 .373-.114.677-.341.913-.227.235-.528.353-.901.353-.374 0-.674-.118-.901-.353-.227-.236-.34-.54-.34-.913v-1.485c-.926-.081-1.826-.275-2.702-.584s-1.631-.714-2.264-1.217c-.211-.146-.357-.309-.438-.487-.081-.179-.122-.398-.122-.658 0-.341.101-.641.304-.901s.434-.39.694-.39c.162 0 .312.028.451.085.138.057.32.15.548.28.746.487 1.481.844 2.203 1.071s1.481.341 2.276.341c1.087 0 1.927-.211 2.52-.633.592-.422.888-1.031.888-1.826 0-.471-.162-.852-.487-1.144s-.73-.524-1.217-.694-1.169-.369-2.045-.596c-1.217-.308-2.208-.621-2.97-.937-.763-.317-1.42-.799-1.972-1.448s-.828-1.525-.828-2.629c0-1.315.471-2.434 1.412-3.36.941-.925 2.175-1.501 3.7-1.728v-1.534c0-.373.113-.677.341-.913.227-.235.527-.353.901-.353.373 0 .673.118.901.353.227.236.341.54.341.913v1.51c1.639.211 3.051.803 4.236 1.777.39.292.585.674.585 1.144 0 .341-.102.641-.305.901s-.443.39-.718.39c-.146 0-.289-.024-.426-.073s-.32-.146-.547-.292c-.666-.47-1.295-.823-1.887-1.059-.592-.235-1.294-.353-2.105-.353-1.007 0-1.81.223-2.41.669-.601.447-.901 1.059-.901 1.838 0 .536.17.97.511 1.303s.77.588 1.29.767c.519.179 1.225.381 2.118.609 1.185.292 2.15.593 2.897.901.747.309 1.384.775 1.912 1.4.527.625.791 1.473.791 2.544-.003 1.296-.454 2.392-1.354 3.284z" fill="#fff"/></g></g><path d="m99.833 47.744h-75.666c-2.577 0-4.667-2.089-4.667-4.667 0-2.577 2.089-4.667 4.667-4.667h75.667c2.577 0 4.667 2.089 4.667 4.667-.001 2.578-2.09 4.667-4.668 4.667z" fill="#0089ef"/><path d="m24.167 41.411h75.667c2.049 0 3.771 1.33 4.398 3.167.162-.473.268-.972.268-1.5 0-2.577-2.089-4.667-4.667-4.667h-75.666c-2.577 0-4.667 2.089-4.667 4.667 0 .528.107 1.027.268 1.5.628-1.838 2.349-3.167 4.399-3.167z" fill="#fff"/><path d="m94.5 47.744h-65l20 26v8h25v-8z" fill="#6dc9f7"/><g><g><path d="m96.867 3.089h-26.465c-2.401 0-4.348 1.947-4.348 4.348v14.048c0 2.401 1.947 4.348 4.348 4.348h6.469v5.062l7.086-5.062h12.909c2.401 0 4.348-1.947 4.348-4.348v-14.048c.001-2.401-1.946-4.348-4.347-4.348z" fill="#fa759e"/><g fill="#fff"><circle cx="73.858" cy="14.712" r="3.025"/><circle cx="83.635" cy="14.712" r="3.025"/><circle cx="93.411" cy="14.712" r="3.025"/></g></g><g><path d="m27.133 6.772h26.465c2.401 0 4.348 1.947 4.348 4.348v14.048c0 2.401-1.947 4.348-4.348 4.348h-6.469v5.062l-7.086-5.062h-12.91c-2.401 0-4.348-1.947-4.348-4.348v-14.048c0-2.402 1.947-4.348 4.348-4.348z" fill="#ffd7e5"/><g fill="#fff"><circle cx="50.142" cy="18.395" r="3.025"/><circle cx="40.365" cy="18.395" r="3.025"/><circle cx="30.589" cy="18.395" r="3.025"/></g></g></g><g fill="#3a2c60"><path d="m62 84.911c-10.201 0-18.5 8.299-18.5 18.5s8.299 18.5 18.5 18.5 18.5-8.299 18.5-18.5-8.299-18.5-18.5-18.5zm0 35c-9.098 0-16.5-7.402-16.5-16.5s7.402-16.5 16.5-16.5 16.5 7.402 16.5 16.5-7.402 16.5-16.5 16.5z"/><path d="m99.833 37.411h-75.666c-3.125 0-5.667 2.542-5.667 5.667s2.542 5.667 5.667 5.667h4.84l19.493 25.339v7.66c0 .552.447 1 1 1h25c.553 0 1-.448 1-1v-7.66l6.958-9.046c.336-.438.255-1.066-.184-1.402-.438-.338-1.065-.255-1.402.183l-7.165 9.315c-.134.175-.207.389-.207.61v7h-23v-7c0-.221-.073-.435-.207-.61l-18.762-24.39h60.939l-3.05 3.964c-.336.438-.255 1.066.184 1.402.437.336 1.064.254 1.402-.183l3.987-5.184h4.84c3.125 0 5.667-2.542 5.667-5.667 0-3.123-2.542-5.665-5.667-5.665zm0 9.333h-75.666c-2.022 0-3.667-1.645-3.667-3.667 0-2.021 1.645-3.667 3.667-3.667h75.666c2.022 0 3.667 1.645 3.667 3.667s-1.645 3.667-3.667 3.667z"/><path d="m70.402 26.833h5.47v4.062c0 .375.209.718.542.889.145.074.302.111.458.111.205 0 .408-.063.581-.187l6.825-4.876h12.589c2.948 0 5.348-2.399 5.348-5.348v-14.047c0-2.949-2.399-5.348-5.348-5.348h-26.465c-2.948 0-5.348 2.399-5.348 5.348v14.048c.001 2.949 2.4 5.348 5.348 5.348zm-3.347-19.396c0-1.846 1.502-3.348 3.348-3.348h26.465c1.846 0 3.348 1.502 3.348 3.348v14.048c0 1.846-1.502 3.348-3.348 3.348h-12.91c-.208 0-.412.065-.581.187l-5.505 3.933v-3.119c0-.552-.447-1-1-1h-6.47c-1.846 0-3.348-1.502-3.348-3.348v-14.049z"/><path d="m27.133 30.515h12.589l6.825 4.875c.173.124.376.187.581.187.156 0 .313-.037.458-.111.333-.171.542-.515.542-.889v-4.062h5.47c2.948 0 5.348-2.399 5.348-5.348v-14.047c0-2.949-2.399-5.348-5.348-5.348h-26.465c-2.948 0-5.348 2.399-5.348 5.348v14.048c0 2.948 2.4 5.347 5.348 5.347zm-3.348-19.395c0-1.846 1.502-3.348 3.348-3.348h26.465c1.846 0 3.348 1.502 3.348 3.348v14.048c0 1.846-1.502 3.348-3.348 3.348h-6.47c-.553 0-1 .448-1 1v3.119l-5.505-3.932c-.169-.122-.373-.187-.581-.187h-12.909c-1.846 0-3.348-1.502-3.348-3.348z"/><path d="m87.219 55.569-3.969 5.159c-.336.438-.255 1.066.184 1.402.182.14.396.208.608.208.3 0 .597-.134.794-.39l3.969-5.159c.336-.438.255-1.066-.184-1.402-.437-.338-1.065-.256-1.402.182z"/></g></g></g></svg>