<svg height="512" viewBox="0 0 64 64" width="512" xmlns="http://www.w3.org/2000/svg"><g id="Fill_Outline" data-name="Fill Outline"><rect fill="#aae1f9" height="30" rx="2" width="48" x="3" y="17"/><path d="m35 47h-16l-4 6h24z" fill="#fcbc04"/><path d="m12 53h30a2 2 0 0 1 2 2v2a0 0 0 0 1 0 0h-34a0 0 0 0 1 0 0v-2a2 2 0 0 1 2-2z" fill="#fcbc04"/><path d="m15 53h27a2 2 0 0 1 2 2 0 0 0 0 1 0 0h-27a2 2 0 0 1 -2-2 0 0 0 0 1 0 0z" fill="#f9e109"/><path d="m35 47h-16l-4 6z" fill="#e59730"/><path d="m9 25v-8h-4a2 2 0 0 0 -2 2v26a2 2 0 0 0 2 2h44a2 2 0 0 0 2-2v-4h-26a16 16 0 0 1 -16-16z" fill="#57b7eb"/><path d="m14 25h10a4 4 0 0 1 4 4v10a0 0 0 0 1 0 0h-18a0 0 0 0 1 0 0v-10a4 4 0 0 1 4-4z" fill="#c4f236"/><path d="m16 22v3l3 5 3-5v-3z" fill="#fcbc04"/><path d="m16 25 1.16 1.93a5.83 5.83 0 0 0 .84.07 5.92 5.92 0 0 0 3.46-1.11l.54-.89v-3h-6z" fill="#e59730"/><path d="m25 17a4 4 0 0 0 4-4v-2a4 4 0 0 0 -4-4h-16v6a4 4 0 0 0 4 4" fill="#57b7eb"/><path d="m19 25a6 6 0 0 1 -6-6v-8a11.94 11.94 0 0 0 6.61 2h5.39v6a6 6 0 0 1 -6 6z" fill="#f9e109"/><path d="m19.61 13a11.94 11.94 0 0 1 -6.61-2v8a6 6 0 0 0 6 6 6.09 6.09 0 0 0 1.54-.21 6.15 6.15 0 0 1 -4.54-6v-.9a2 2 0 0 1 2.23-2 12.77 12.77 0 0 0 1.38.08h5.39v-2.97z" fill="#fcbc04"/><path d="m13 30v-4.86a4 4 0 0 0 -3 3.86v10h18v-3h-9a6 6 0 0 1 -6-6z" fill="#a1d51c"/><path d="m10 39h7.26a16.06 16.06 0 0 1 -7.26-8.48z" fill="#7ab92d"/><path d="m15 7h11a3 3 0 0 1 3 3 0 0 0 0 1 0 0h-11a3 3 0 0 1 -3-3 0 0 0 0 1 0 0z" fill="#aae1f9"/><path d="m57 3h-20a4 4 0 0 0 -4 4v14a4 4 0 0 0 4 4h1l-2 6 10.36-6h10.64a4 4 0 0 0 4-4v-14a4 4 0 0 0 -4-4z" fill="#c4f236"/><path d="m38 11v-8h-1a4 4 0 0 0 -4 4v14a4 4 0 0 0 4 4h1l-2 6 10.36-6h10.64a4 4 0 0 0 4-4h-13a10 10 0 0 1 -10-10z" fill="#a1d51c"/><path d="m51 7a4 4 0 0 0 -4 4v10a2 2 0 0 1 2-2h8v-12z" fill="#57b7eb"/><path d="m43 7a4 4 0 0 1 4 4v10a2 2 0 0 0 -2-2h-8v-12z" fill="#57b7eb"/><path d="m40 7h3a4 4 0 0 1 4 4v5a0 0 0 0 1 0 0h-3a4 4 0 0 1 -4-4v-5a0 0 0 0 1 0 0z" fill="#aae1f9"/><path d="m50 7h7a0 0 0 0 1 0 0v9a0 0 0 0 1 0 0h-3a4 4 0 0 1 -4-4v-5a0 0 0 0 1 0 0z" fill="#aae1f9"/><path d="m38 11v-4h-1v12h5a10 10 0 0 1 -4-8z" fill="#4891d3"/><g fill="#39519d"><circle cx="17" cy="17" r="1"/><circle cx="21" cy="17" r="1"/><path d="m12 17.9v1.1a7 7 0 0 0 2.11 5h-.11a5 5 0 0 0 -5 5v10a1 1 0 0 0 2 0v-10a3 3 0 0 1 3-3h1.43l2.57 4.28v8.72a1 1 0 0 0 2 0v-8.72l2.57-4.28h1.43a3 3 0 0 1 3 3v10a1 1 0 0 0 2 0v-10a5 5 0 0 0 -5-5h-.11a7 7 0 0 0 2.11-5v-1.1a5 5 0 0 0 4-4.9v-2a5 5 0 0 0 -5-5h-16a1 1 0 0 0 -1 1v6a5 5 0 0 0 4 4.9zm7 10.16-1.23-2.06h2.46zm5-9.06a5 5 0 0 1 -10 0v-6.28a12.88 12.88 0 0 0 5.61 1.28h4.39zm-14-11h15a3 3 0 0 1 3 3v2a3 3 0 0 1 -2 2.82v-2.82a1 1 0 0 0 -1-1h-5.39a10.87 10.87 0 0 1 -6.06-1.83 1 1 0 0 0 -1-.05 1 1 0 0 0 -.55.88v4.82a3 3 0 0 1 -2-2.82z"/><path d="m13 31v8a1 1 0 0 0 2 0v-8a1 1 0 0 0 -2 0z"/><path d="m23 31v8a1 1 0 0 0 2 0v-8a1 1 0 0 0 -2 0z"/><path d="m19.71 19.71a1 1 0 0 1 -1.42 0 1 1 0 0 0 -1.41 1.41 3 3 0 0 0 4.24 0 1 1 0 0 0 -1.41-1.41z"/><path d="m51 12h2a1 1 0 0 0 0-2h-2a1 1 0 0 0 0 2z"/><path d="m51 16h2a1 1 0 0 0 0-2h-2a1 1 0 0 0 0 2z"/><path d="m43 10h-2a1 1 0 0 0 0 2h2a1 1 0 0 0 0-2z"/><path d="m43 14h-2a1 1 0 0 0 0 2h2a1 1 0 0 0 0-2z"/><path d="m47 22a1 1 0 0 0 1-1 1 1 0 0 1 1-1h8a1 1 0 0 0 1-1v-12a1 1 0 0 0 -1-1h-6a5 5 0 0 0 -4 2 5 5 0 0 0 -4-2h-6a1 1 0 0 0 -1 1v12a1 1 0 0 0 1 1h6a1 1 0 0 0 0-2h-5v-10h5a3 3 0 0 1 3 3v10a1 1 0 0 0 1 1zm4-14h5v10h-7a3 3 0 0 0 -1 .17v-7.17a3 3 0 0 1 3-3z"/><path d="m61 15a1 1 0 0 0 1-1v-7a5 5 0 0 0 -5-5h-20a5 5 0 0 0 -5 5v14a5 5 0 0 0 4.62 5l-1.57 4.69a1 1 0 0 0 .32 1.09 1 1 0 0 0 1.13.1l10.13-5.88h10.37a5 5 0 0 0 5-5v-3a1 1 0 0 0 -2 0v3a3 3 0 0 1 -3 3h-10.64a1.09 1.09 0 0 0 -.5.13l-8.08 4.68 1.22-3.49a1 1 0 0 0 -.14-.9 1 1 0 0 0 -.86-.42h-1a3 3 0 0 1 -3-3v-14a3 3 0 0 1 3-3h20a3 3 0 0 1 3 3v7a1 1 0 0 0 1 1z"/><path d="m47 36a1 1 0 0 0 0-2h-8a1 1 0 0 0 0 2z"/><path d="m32 39a1 1 0 0 0 1 1h14a1 1 0 0 0 0-2h-14a1 1 0 0 0 -1 1z"/><path d="m33 44h8a1 1 0 0 0 0-2h-8a1 1 0 0 0 0 2z"/><path d="m51 28a1 1 0 0 0 -1 1v16a1 1 0 0 1 -1 1h-44a1 1 0 0 1 -1-1v-26a1 1 0 0 1 1-1h1a1 1 0 0 0 0-2h-1a3 3 0 0 0 -3 3v26a3 3 0 0 0 3 3h12.13l-2.67 4h-2.46a1 1 0 0 0 0 2h30a1 1 0 0 1 1 1v1h-33a1 1 0 0 0 0 2h34a1 1 0 0 0 1-1v-2a3 3 0 0 0 -3-3h-2.46l-2.67-4h12.13a3 3 0 0 0 3-3v-16a1 1 0 0 0 -1-1zm-13.87 24h-20.26l2.67-4h14.92z"/></g></g></svg>